# FreeCAD v0.18 build16117 (Git) Arch module
# http://www.freecadweb.org
mtllib cube.mtl
o Body
usemtl cube_material
v -5.000000 5.000000 -5.000000
v -5.000000 -5.000000 -5.000000
v -5.000000 -5.000000 5.000000
v -5.000000 5.000000 5.000000
v 5.000000 5.000000 -5.000000
v 5.000000 5.000000 5.000000
v 5.000000 -5.000000 -5.000000
v 5.000000 -5.000000 5.000000
vn -1.000000 0.000000 0.000000
vn -1.000000 0.000000 0.000000
vn 0.000000 1.000000 0.000000
vn 0.000000 1.000000 -0.000000
vn 1.000000 0.000000 0.000000
vn 1.000000 0.000000 0.000000
vn 0.000000 -1.000000 0.000000
vn 0.000000 -1.000000 0.000000
vn 0.000000 0.000000 -1.000000
vn 0.000000 0.000000 -1.000000
vn 0.000000 0.000000 1.000000
vn 0.000000 0.000000 1.000000
vt 1.186010 0.821062
vt 1.186010 0.751739
vt 1.211822 0.744661
vt 1.264156 0.821063
vt 1.237883 0.738566
vt 1.264156 0.733463
vt 1.211822 0.897464
vt 1.186010 0.890386
vt 1.237883 0.903559
vt 1.264156 0.908662
vt 1.494363 0.363844
vt 1.497211 0.442731
f 1//1 2//1 3//1
f 1//2 3//2 4//2
f 5//3 1//3 4//3
f 5//4 4//4 6//4
f 7//5 5//5 6//5
f 7//6 6//6 8//6
f 2//7 7//7 8//7
f 2//8 8//8 3//8
f 1//9 5//9 7//9
f 1//10 7//10 2//10
f 6//11 4//11 8//11
f 8//12 4//12 3//12
