# FreeCAD v0.18 build16117 (Git) Arch module
# http://www.freecadweb.org
mtllib sedan_windshield.mtl
o Extrude001
usemtl color_cccccc
v 4.128068 -5.500000 12.219550
v 6.013626 -6.061606 11.420604
v 4.147575 -5.500000 12.265588
v 6.033133 -6.061606 11.466641
v 7.917432 -6.545171 10.613925
v 7.936939 -6.545171 10.659963
v 9.836750 -6.950000 9.800674
v 9.856256 -6.950000 9.846712
v 9.836750 0.000000 9.800674
v 9.856256 0.000000 9.846712
v 9.836750 6.950000 9.800674
v 9.856256 6.950000 9.846712
v 7.917432 6.545171 10.613925
v 7.936939 6.545171 10.659963
v 6.013626 6.061606 11.420604
v 6.033133 6.061606 11.466641
v 4.128068 5.500000 12.219550
v 4.147575 5.500000 12.265588
v 4.128068 -0.000000 12.219550
v 4.147575 -0.000000 12.265588
v 6.033133 -6.061606 11.466641
v 9.856256 0.000000 9.846712
v 7.936939 -6.545171 10.659963
v 9.856256 -6.950000 9.846712
v 6.033133 6.061606 11.466641
v 7.936939 6.545171 10.659963
vn -0.243520 -0.964392 0.103183
vn -0.243519 -0.964392 0.103185
vn -0.209679 -0.973725 0.088847
vn -0.209679 -0.973725 0.088847
vn -0.175539 -0.981659 0.074377
vn -0.175538 -0.981659 0.074380
vn 0.920759 0.000000 -0.390132
vn 0.920759 0.000000 -0.390132
vn 0.920759 0.000000 -0.390132
vn 0.920759 0.000000 -0.390132
vn -0.175540 0.981659 0.074377
vn -0.175538 0.981659 0.074380
vn -0.209679 0.973725 0.088847
vn -0.209679 0.973725 0.088847
vn -0.243520 0.964392 0.103183
vn -0.243519 0.964392 0.103186
vn -0.920756 0.000000 0.390140
vn -0.920756 0.000000 0.390140
vn -0.920756 0.000000 0.390140
vn -0.920756 0.000000 0.390140
vn -0.390141 0.000000 -0.920755
vn -0.390141 0.000000 -0.920755
vn -0.390141 0.000000 -0.920755
vn -0.390141 0.000000 -0.920755
vn -0.390141 -0.000000 -0.920755
vn -0.390141 -0.000000 -0.920755
vn -0.390141 -0.000000 -0.920755
vn -0.390141 0.000000 -0.920755
vn 0.390141 0.000000 0.920755
vn 0.390141 -0.000000 0.920755
vn 0.390141 0.000000 0.920755
vn 0.390141 -0.000000 0.920755
vn 0.390141 0.000000 0.920755
vn 0.390141 0.000000 0.920755
vn 0.390141 0.000000 0.920755
vn 0.390141 0.000000 0.920755
f 1//1 2//1 3//1
f 3//2 2//2 4//2
f 4//3 5//3 6//3
f 2//4 5//4 4//4
f 6//5 7//5 8//5
f 5//6 7//6 6//6
f 7//7 9//7 8//7
f 8//8 9//8 10//8
f 9//9 11//9 10//9
f 10//10 11//10 12//10
f 11//11 13//11 12//11
f 12//12 13//12 14//12
f 14//13 15//13 16//13
f 13//14 15//14 14//14
f 16//15 17//15 18//15
f 15//16 17//16 16//16
f 17//17 19//17 20//17
f 17//18 20//18 18//18
f 19//19 1//19 3//19
f 19//20 3//20 20//20
f 1//21 19//21 2//21
f 2//22 9//22 5//22
f 5//23 9//23 7//23
f 19//24 9//24 2//24
f 17//25 15//25 19//25
f 19//26 15//26 9//26
f 15//27 13//27 9//27
f 13//28 11//28 9//28
f 20//29 3//29 21//29
f 22//30 21//30 23//30
f 22//31 23//31 24//31
f 22//32 20//32 21//32
f 25//33 18//33 20//33
f 25//34 20//34 22//34
f 26//35 25//35 22//35
f 12//36 26//36 22//36
