# FreeCAD v0.18 build16117 (Git) Arch module
# http://www.freecadweb.org
mtllib sedan_glass.mtl
o Fusion
usemtl color_cccccc
v 4.089054 -5.500000 12.127474
v 5.935597 -6.061606 11.236453
v 5.974612 -6.061606 11.328528
v 4.050040 -5.500000 12.035398
v 7.839404 -6.545171 10.429774
v 7.878418 -6.545171 10.521850
v 9.758721 -6.950000 9.616524
v 9.797735 -6.950000 9.708599
v 4.990368 0.000000 11.636964
v 4.050040 -5.500000 12.035398
v 4.050040 5.500000 12.035398
v 7.361891 -3.215818 10.632106
v 9.758721 -6.950000 9.616524
v 7.839404 -6.545171 10.429774
v 6.409945 -3.094922 11.035462
v 5.935597 -6.061606 11.236453
v 7.361891 3.215818 10.632106
v 7.839404 6.545171 10.429774
v 9.758721 6.950000 9.616524
v 6.409945 3.094922 11.035462
v 5.935597 6.061606 11.236453
v 5.226229 -4.395082 11.537025
v 6.172631 -1.531584 11.136017
v 8.557478 1.676561 10.125513
v 6.172631 1.531584 11.136017
v 5.226229 4.395082 11.537025
v 7.361891 0.000000 10.632106
v 9.758721 6.950000 9.616524
v 9.797735 6.950000 9.708599
v 4.089054 -5.500000 12.127474
v 5.029382 0.000000 11.729040
v 4.089054 5.500000 12.127474
v 9.797735 -6.950000 9.708599
v 7.400905 -3.215818 10.724181
v 7.878418 -6.545171 10.521850
v 6.448959 -3.094922 11.127539
v 5.974612 -6.061606 11.328528
v 7.878418 6.545171 10.521850
v 7.400905 3.215818 10.724181
v 9.797735 6.950000 9.708599
v 5.974612 6.061606 11.328528
v 6.448959 3.094922 11.127539
v 5.265243 -4.395082 11.629101
v 6.211646 -1.531584 11.228092
v 8.596492 1.676561 10.217588
v 6.211646 1.531584 11.228092
v 5.265243 4.395082 11.629101
v 7.400905 0.000000 10.724181
v 4.050040 5.500000 12.035398
v 4.089054 5.500000 12.127474
v 7.878418 6.545171 10.521850
v 5.935597 6.061606 11.236453
v 5.974612 6.061606 11.328528
v -13.864459 5.141865 12.025779
v -15.674853 5.626529 11.598828
v -13.893193 5.141865 12.121561
v -15.646118 5.626529 11.503045
v -17.456057 6.051355 10.971723
v -17.427322 6.051355 10.875939
v -19.222815 6.411942 10.240463
v -19.194080 6.411942 10.144681
v -14.754535 0.000000 11.777376
v -13.864459 -5.141865 12.025779
v -17.131063 3.989939 10.987728
v -15.646118 5.626529 11.503045
v -19.194080 6.411942 10.144681
v -16.982805 2.975510 11.042533
v -16.091982 2.869268 11.356089
v -17.723183 0.000000 10.761252
v -19.194080 -6.411942 10.144681
v -16.982805 -2.975510 11.042533
v -17.131063 -3.989939 10.987728
v -15.646118 -5.626529 11.503045
v -17.427322 -6.051355 10.875939
v -16.091982 -2.869268 11.356089
v -14.977349 4.088640 11.711234
v -16.240564 0.000000 11.305649
v -14.977349 -4.088640 11.711234
v -19.222815 -6.411942 10.240463
v -14.783270 0.000000 11.873158
v -13.893193 -5.141865 12.121561
v -17.159798 3.989939 11.083510
v -17.011539 2.975510 11.138315
v -16.120718 2.869268 11.451871
v -17.751919 0.000000 10.857035
v -17.011539 -2.975510 11.138315
v -15.674853 -5.626529 11.598828
v -17.159798 -3.989939 11.083510
v -17.456057 -6.051355 10.971723
v -16.120718 -2.869268 11.451871
v -15.006084 4.088640 11.807016
v -16.269299 0.000000 11.401431
v -15.006084 -4.088640 11.807016
v -13.864459 -5.141865 12.025779
v -15.646118 -5.626529 11.503045
v -17.427322 -6.051355 10.875939
vn -0.243519 -0.964392 0.103184
vn -0.243520 -0.964392 0.103183
vn -0.209679 -0.973725 0.088846
vn -0.209680 -0.973725 0.088846
vn -0.175539 -0.981659 0.074379
vn -0.175539 -0.981659 0.074380
vn -0.390141 0.000000 -0.920755
vn -0.390141 0.000000 -0.920755
vn -0.390141 -0.000000 -0.920755
vn -0.390141 0.000000 -0.920755
vn -0.390141 -0.000000 -0.920755
vn -0.390141 0.000000 -0.920755
vn -0.390141 -0.000000 -0.920755
vn -0.390141 -0.000000 -0.920755
vn -0.390141 -0.000000 -0.920755
vn -0.390141 -0.000000 -0.920755
vn -0.390141 0.000000 -0.920755
vn -0.390141 0.000000 -0.920755
vn -0.390141 -0.000000 -0.920755
vn -0.390141 0.000000 -0.920755
vn -0.390141 -0.000000 -0.920755
vn -0.390141 0.000000 -0.920755
vn -0.390141 -0.000000 -0.920755
vn -0.390141 0.000000 -0.920755
vn -0.390141 0.000000 -0.920755
vn -0.390141 0.000000 -0.920755
vn -0.390141 0.000000 -0.920755
vn -0.390141 -0.000000 -0.920755
vn -0.390141 0.000000 -0.920755
vn -0.390141 -0.000000 -0.920755
vn -0.390141 -0.000000 -0.920755
vn -0.390141 0.000000 -0.920755
vn -0.390141 -0.000000 -0.920755
vn -0.390141 -0.000000 -0.920755
vn 0.920756 0.000000 -0.390140
vn 0.920756 0.000000 -0.390140
vn 0.390141 -0.000000 0.920755
vn 0.390141 -0.000000 0.920755
vn 0.390141 -0.000000 0.920755
vn 0.390141 -0.000000 0.920755
vn 0.390141 0.000000 0.920755
vn 0.390141 0.000000 0.920755
vn 0.390141 0.000000 0.920755
vn 0.390141 0.000000 0.920755
vn 0.390141 0.000000 0.920755
vn 0.390141 -0.000000 0.920755
vn 0.390141 0.000000 0.920755
vn 0.390141 0.000000 0.920755
vn 0.390141 -0.000000 0.920755
vn 0.390141 0.000000 0.920755
vn 0.390141 0.000000 0.920755
vn 0.390141 0.000000 0.920755
vn 0.390141 -0.000000 0.920755
vn 0.390141 -0.000000 0.920755
vn 0.390141 -0.000000 0.920755
vn 0.390141 -0.000000 0.920755
vn 0.390141 0.000000 0.920755
vn 0.390141 -0.000000 0.920755
vn 0.390141 0.000000 0.920755
vn 0.390141 -0.000000 0.920755
vn 0.390141 0.000000 0.920755
vn 0.390141 -0.000000 0.920755
vn 0.390141 0.000000 0.920755
vn 0.390141 0.000000 0.920755
vn -0.920756 0.000000 0.390140
vn -0.920756 0.000000 0.390140
vn -0.175539 0.981659 0.074379
vn -0.175539 0.981659 0.074379
vn -0.209680 0.973725 0.088846
vn -0.209680 0.973725 0.088846
vn -0.243520 0.964392 0.103183
vn -0.243519 0.964392 0.103184
vn 0.241917 0.967579 0.072574
vn 0.241917 0.967579 0.072576
vn 0.210449 0.975564 0.063135
vn 0.210450 0.975564 0.063133
vn 0.178377 0.982506 0.053512
vn 0.178376 0.982506 0.053512
vn 0.268808 0.000000 -0.963194
vn 0.331333 -0.003548 -0.943507
vn 0.383301 0.005000 -0.923610
vn 0.384652 0.006349 -0.923040
vn 0.331753 -0.002480 -0.943363
vn 0.386590 0.000000 -0.922252
vn 0.370386 -0.004353 -0.928868
vn 0.370386 0.004353 -0.928868
vn 0.331333 0.003548 -0.943507
vn 0.383301 -0.005000 -0.923610
vn 0.384652 -0.006349 -0.923040
vn 0.331753 0.002480 -0.943363
vn 0.279395 -0.008479 -0.960139
vn 0.318020 0.009957 -0.948032
vn 0.272604 -0.000709 -0.962126
vn 0.302523 0.001067 -0.953141
vn 0.319051 -0.015652 -0.947608
vn 0.344683 0.002973 -0.938715
vn 0.331953 -0.000607 -0.943296
vn 0.302563 0.001087 -0.953129
vn 0.344683 -0.002973 -0.938715
vn 0.302563 -0.001087 -0.953129
vn 0.331953 0.000607 -0.943296
vn 0.279395 0.008479 -0.960139
vn 0.318020 -0.009957 -0.948032
vn 0.272604 0.000709 -0.962126
vn 0.319051 0.015652 -0.947608
vn 0.302523 -0.001067 -0.953141
vn -0.957828 -0.000000 -0.287344
vn -0.957828 -0.000000 -0.287344
vn -0.268808 0.000000 0.963194
vn -0.331333 0.003547 0.943507
vn -0.383302 -0.005001 0.923610
vn -0.384652 -0.006349 0.923040
vn -0.331754 0.002480 0.943363
vn -0.386590 0.000000 0.922252
vn -0.370386 0.004353 0.928868
vn -0.370386 -0.004353 0.928868
vn -0.331333 -0.003547 0.943507
vn -0.383302 0.005001 0.923610
vn -0.384652 0.006349 0.923040
vn -0.331754 -0.002480 0.943363
vn -0.279395 0.008478 0.960139
vn -0.318020 -0.009957 0.948032
vn -0.272603 0.000709 0.962126
vn -0.302523 -0.001067 0.953141
vn -0.319051 0.015653 0.947608
vn -0.344682 -0.002973 0.938715
vn -0.331953 0.000607 0.943296
vn -0.302563 -0.001088 0.953129
vn -0.344682 0.002973 0.938715
vn -0.302563 0.001088 0.953129
vn -0.331953 -0.000607 0.943296
vn -0.279395 -0.008478 0.960139
vn -0.318020 0.009957 0.948032
vn -0.272603 -0.000709 0.962126
vn -0.319051 -0.015653 0.947608
vn -0.302523 0.001067 0.953141
vn 0.957828 0.000000 0.287344
vn 0.957828 -0.000000 0.287344
vn 0.241917 -0.967579 0.072574
vn 0.241917 -0.967579 0.072575
vn 0.210449 -0.975564 0.063135
vn 0.210450 -0.975564 0.063133
vn 0.178377 -0.982506 0.053512
vn 0.178376 -0.982506 0.053512
f 1//1 2//1 3//1
f 4//2 2//2 1//2
f 3//3 5//3 6//3
f 2//4 5//4 3//4
f 6//5 7//5 8//5
f 5//6 7//6 6//6
f 9//7 10//7 11//7
f 12//8 13//8 14//8
f 15//9 14//9 16//9
f 15//10 12//10 14//10
f 17//11 18//11 19//11
f 20//12 21//12 18//12
f 20//13 18//13 17//13
f 22//14 16//14 10//14
f 22//15 15//15 16//15
f 22//16 10//16 9//16
f 23//17 12//17 15//17
f 23//18 15//18 22//18
f 23//19 22//19 9//19
f 24//20 19//20 13//20
f 24//21 13//21 12//21
f 24//22 17//22 19//22
f 25//23 20//23 17//23
f 25//24 17//24 24//24
f 26//25 11//25 21//25
f 26//26 21//26 20//26
f 26//27 9//27 11//27
f 26//28 20//28 25//28
f 26//29 25//29 9//29
f 27//30 12//30 23//30
f 27//31 9//31 25//31
f 27//32 23//32 9//32
f 27//33 24//33 12//33
f 27//34 25//34 24//34
f 8//35 28//35 29//35
f 7//36 28//36 8//36
f 30//37 31//37 32//37
f 33//38 34//38 35//38
f 35//39 36//39 37//39
f 34//40 36//40 35//40
f 38//41 39//41 40//41
f 41//42 42//42 38//42
f 38//43 42//43 39//43
f 37//44 43//44 30//44
f 36//45 43//45 37//45
f 30//46 43//46 31//46
f 34//47 44//47 36//47
f 36//48 44//48 43//48
f 43//49 44//49 31//49
f 40//50 45//50 33//50
f 33//51 45//51 34//51
f 39//52 45//52 40//52
f 42//53 46//53 39//53
f 39//54 46//54 45//54
f 32//55 47//55 41//55
f 41//56 47//56 42//56
f 31//57 47//57 32//57
f 42//58 47//58 46//58
f 46//59 47//59 31//59
f 34//60 48//60 44//60
f 31//61 48//61 46//61
f 44//62 48//62 31//62
f 45//63 48//63 34//63
f 46//64 48//64 45//64
f 49//65 1//65 50//65
f 49//66 4//66 1//66
f 29//67 18//67 51//67
f 28//68 18//68 29//68
f 51//69 52//69 53//69
f 18//70 52//70 51//70
f 53//71 49//71 50//71
f 52//72 49//72 53//72
f 54//73 55//73 56//73
f 54//74 57//74 55//74
f 57//75 58//75 55//75
f 57//76 59//76 58//76
f 59//77 60//77 58//77
f 59//78 61//78 60//78
f 62//79 54//79 63//79
f 64//80 59//80 65//80
f 64//81 66//81 59//81
f 67//82 66//82 64//82
f 68//83 67//83 64//83
f 69//84 70//84 66//84
f 69//85 66//85 67//85
f 71//86 70//86 69//86
f 72//87 73//87 74//87
f 72//88 74//88 70//88
f 72//89 70//89 71//89
f 75//90 72//90 71//90
f 76//91 65//91 54//91
f 76//92 64//92 65//92
f 76//93 54//93 62//93
f 76//94 62//94 68//94
f 76//95 68//95 64//95
f 77//96 69//96 67//96
f 77//97 67//97 68//97
f 77//98 68//98 62//98
f 77//99 71//99 69//99
f 77//100 62//100 75//100
f 77//101 75//101 71//101
f 78//102 63//102 73//102
f 78//103 73//103 72//103
f 78//104 62//104 63//104
f 78//105 72//105 75//105
f 78//106 75//106 62//106
f 60//107 70//107 79//107
f 61//108 70//108 60//108
f 56//109 80//109 81//109
f 58//110 82//110 55//110
f 60//111 82//111 58//111
f 60//112 83//112 82//112
f 83//113 84//113 82//113
f 79//114 85//114 60//114
f 60//115 85//115 83//115
f 79//116 86//116 85//116
f 87//117 88//117 89//117
f 89//118 88//118 79//118
f 79//119 88//119 86//119
f 88//120 90//120 86//120
f 55//121 91//121 56//121
f 82//122 91//122 55//122
f 56//123 91//123 80//123
f 80//124 91//124 84//124
f 84//125 91//125 82//125
f 85//126 92//126 83//126
f 83//127 92//127 84//127
f 84//128 92//128 80//128
f 86//129 92//129 85//129
f 80//130 92//130 90//130
f 90//131 92//131 86//131
f 81//132 93//132 87//132
f 87//133 93//133 88//133
f 80//134 93//134 81//134
f 88//135 93//135 90//135
f 90//136 93//136 80//136
f 94//137 56//137 81//137
f 94//138 54//138 56//138
f 87//139 94//139 81//139
f 95//140 94//140 87//140
f 89//141 95//141 87//141
f 96//142 95//142 89//142
f 79//143 96//143 89//143
f 70//144 96//144 79//144
